<?xml version="1.0" encoding="UTF-8"?>
<svg version="1.1" viewBox="0 0 2048 2048" width="512" height="512" xmlns="http://www.w3.org/2000/svg">
<path transform="translate(431)" d="m0 0h942l10 5 11 9 438 438 7 10 4 11 1 866 19 10 19 12 14 10 14 11 13 11 16 15 9 9 9 11 9 10 14 19 10 15 14 24 11 22 11 28 9 28 8 37 5 37v50l-5 36-8 37-9 29-11 27-10 21-14 24-8 12-10 14-11 14-9 10-7 8-22 22-11 9-12 10-19 13-17 11-18 10-27 13-29 11-28 8-35 7-26 4h-1267l-15-3-18-6-15-8-11-9-12-12-7-10-9-17-5-18-2-19v-242l4-13 6-8 7-6 7-3 9-2 1-68h-276l-18-2-17-5-17-9-13-10-9-9-9-12-8-15-6-18-2-9v-845l6-23 8-16 5-8 9-11 7-7 14-10 16-8 12-4 11-2 14-1h273v-68l-10-2-10-5-7-7-5-9-2-10v-380l3-21 6-18 9-16 13-15 10-9 13-8 13-6 17-5z" fill="#FDBF07"/>
<path transform="translate(431)" d="m0 0h942l10 5 11 9 438 438 7 10 4 11 1 866 19 10 19 12 14 10 14 11 13 11 16 15 9 9 9 11 9 10 14 19 10 15 14 24 11 22 11 28 9 28 8 37 5 37v50l-5 36-8 37-9 29-11 27-10 21-14 24-8 12-10 14-11 14-9 10-7 8-22 22-11 9-12 10-19 13-17 11-18 10-27 13-29 11-28 8-35 7-26 4h-1267l-15-3-18-6-15-8-11-9-12-12-7-10-9-17-5-18-2-19v-242l4-13 6-8 7-6 7-3 12-2 12 3 10 6 6 8 4 11 1 8 1 244 5 12 5 6 10 6 7 2h669l348 1-3-3-16-12-14-12-17-16-7-7-7-8-9-10-9-12-11-15-13-21-10-18-13-27-10-27-8-27-6-29-3-22-2-33v-15l2-33 5-32 7-30 11-33 11-26 10-19 11-19 10-15 14-19 11-13 11-12 6-7 6-5 5-5 14-13 13-10 18-13 19-12 22-12 23-11 27-10 28-8 29-6 28-4 17-1h30l28 2 36 6 25 5v-797l-339-1-21-2-20-6-17-9-13-10-7-7-10-13-8-15-5-15-3-20v-346h-892l-11 4-8 6-4 5-4 8-2 13v374l-3 12-6 9-8 7-9 4-5 1h-7l-12-4-8-6-6-7-4-10-1-6v-380l3-21 6-18 9-16 13-15 10-9 13-8 13-6 17-5z" fill="#020101"/>
<path transform="translate(102,580)" d="m0 0h586l20 3 15 5 15 8 14 11 9 9 10 15 7 14 4 12 2 10 1 10v833l-3 17-5 15-8 15-11 14-9 9-16 11-15 7-15 4-15 2h-589l-18-2-17-5-17-9-13-10-9-9-9-12-8-15-6-18-2-9v-845l6-23 8-16 5-8 9-11 7-7 14-10 16-8 12-4 11-2z" fill="#273390"/>
<path transform="translate(94,649)" d="m0 0h543l5 1 3 9 1 7 2 40v63l-3-3-5-12-7-11-9-10-14-9-15-5-7-1-59-1h-255l-77 1-15 3-16 8-12 11-7 9-6 13-3 15v84l3 15 8 16 11 12 10 7 13 6 15 3h390l14-3 12-5 12-9 9-10 8-14 3-10 3-2-1 10v164h-2l-7-16-7-10-7-8-10-7-13-6-16-3h-113l-14 2-11 4-11 7-9 8-8 10-6 13-3 14v84l2 12 5 13 8 12 8 8 11 7 11 5 13 3h119l14-3 10-4 13-9 10-11 8-14 4-9h1v170l-3-1-5-12-7-11-7-8-13-9-11-5-15-3h-114l-14 2-11 4-12 8-8 7-8 10-6 13-3 15v82l2 13 5 13 7 11 9 9 11 7 11 5 13 3 12 1h79l27-1 12-2 13-5 13-9 10-11 8-14 3-8h2v81l-2 22-4 10-3 4-8 1h-537l-9-4-8-6-6-10-2-5-1-6v-823l2-10 6-10 9-8z" fill="#3B4EB2"/>
<path transform="translate(1651,1365)" d="m0 0h40l26 3 24 5 29 8 28 11 24 12 18 11 17 12 14 11 13 12 18 18 18 22 16 24 14 26 12 29 8 27 5 24 4 29v47l-2 19-5 27-7 25-8 22-8 18-13 24-17 25-18 22-26 26-14 11-12 9-19 12-19 11-28 12-24 8-27 7-16 3-17 2-18 1h-15l-30-2-28-5-27-7-25-9-20-9-22-12-24-16-14-11-14-12-18-18-9-11-11-14-14-21-9-16-12-25-10-28-6-22-5-27-2-16-1-18v-21l3-31 5-27 8-28 11-28 12-24 6-10 8-12 10-14 13-16 11-12 13-13 11-9 14-11 24-16 24-13 20-9 22-8 27-7 20-4z" fill="#51AB55"/>
<path transform="translate(102,580)" d="m0 0h586l20 3 15 5 15 8 14 11 9 9 10 15 7 14 4 12 2 10 1 10v833l-3 17-5 15-8 15-11 14-9 9-16 11-15 7-15 4-15 2h-589l-18-2-17-5-17-9-13-10-9-9-9-12-8-15-6-18-2-9v-845l6-23 8-16 5-8 9-11 7-7 14-10 16-8 12-4 11-2zm-4 68-11 4-8 6-6 7-4 9-1 7v823l2 9 6 11 7 6 8 4 8 2h584l14-3 8-6 7-8 4-9 1-6v-818l-1-11-7-14-8-7-7-4-5-1-48-1z" fill="#020101"/>
<path transform="translate(274,716)" d="m0 0h255l59 1 14 3 12 5 12 9 9 10 8 14 4 13 1 7v87l-5 16-7 12-12 13-14 9-15 5-7 1h-390l-15-3-16-8-9-7-7-7-7-11-4-9-3-15v-84l3-15 8-16 9-10 9-8 16-8 15-3z" fill="#020101"/>
<path transform="translate(1754,1452)" d="m0 0 10 1 11 4 8 7 5 8 3 8v13l-5 14-1 4 17 16 5 5 9 11 10 15 8 19 4 16 2 13-1 18-2 11-7 21-4 6-7 7-12 5h-14l-11-4-10-9-5-10-1-4v-12l4-15v-18l-5-12-8-11-1-3h-3l-1 6-13 27-9 20-11 25-2 3 1 4 17 16 8 8 14 21 6 12 5 13 4 21v13l-2 17-7 21-8 14-7 10-17 17-21 12-21 7-17 3-10 1h-11l-29-3-3 9-7 10-8 6-9 3-10 1-13-4-9-6-6-9-3-9v-13l4-12 1-7-12-11-7-6-10-13-10-15-7-15-5-16-2-13v-17l2-16 4-15 6-12 8-8 8-4 3-1h17l12 6 8 9 4 8 1 4v13l-5 19v7l3 12 7 12 5 6v2h2l2-6 11-23 15-33 8-18v-5l-3-2v-2h-2v-2l-4-2-13-13-7-9-10-15-9-19-4-15-1-8v-26l3-14 5-15 9-16 8-10 13-13 17-11 8-4 19-6 20-3 16-1 30 3 5-10 7-9 7-6 7-3z" fill="#020101"/>
<path transform="translate(1010,1057)" d="m0 0h500l167 1 10 3 9 6 7 10 3 8v14l-3 8-6 9-8 6-10 4-275 1h-382l-137-1-12-3-9-6-6-7-4-9-1-11 3-12 6-9 8-7 7-3 6-1z" fill="#020101"/>
<path transform="translate(886,853)" d="m0 0h788l10 2 8 4 6 5 6 10 2 6v14l-4 11-8 9-10 6-13 2h-772l-18-1-11-4-10-9-6-12v-16l4-11 8-9 9-5z" fill="#020101"/>
<path transform="translate(886,648)" d="m0 0h787l13 3 8 5 7 8 4 8 1 3v15l-4 10-8 9-10 6-12 2h-767l-24-1-11-4-10-9-6-12v-16l3-9 7-9 7-5 9-3z" fill="#020101"/>
<path transform="translate(1400,118)" d="m0 0 4 2 7 8 5 4 4 4v2h2v2h2v2h2l7 8 287 287 2 1v2l3 1-1 3h-59l-239-1-9-4-6-4-6-7-4-8-1-5-1-40v-256z" fill="#FE9703"/>
<path transform="translate(473,1263)" d="m0 0h114l15 3 16 8 11 9 8 10 8 16 3 14v87l-4 15-5 9-8 11-7 7-14 9-15 5-8 1-27 1h-79l-18-2-12-4-13-7-12-11-6-8-6-12-3-10-1-9v-82l3-15 8-16 11-12 13-9 8-4 11-3z" fill="#020101"/>
<path transform="translate(473,990)" d="m0 0h113l16 3 16 8 10 8 9 11 8 16 3 15v87l-5 16-8 13-11 12-14 9-15 5-7 1h-119l-16-4-15-8-12-11-8-11-5-12-2-7-1-8v-84l3-14 8-16 11-12 14-10 9-4 9-2z" fill="#020101"/>
<path transform="translate(909,1262)" d="m0 0h410l52 1 11 4 8 6 6 9 3 10v12l-4 10-9 10-12 6-5 1h-484l-12-3-9-6-7-9-3-8-1-10 3-12 6-9 8-7 6-3 5-1z" fill="#020101"/>
<path transform="translate(1727,1371)" d="m0 0 10 1 30 8 21 8 18 8 23 12 24 16 18 14 13 12 18 18 18 22 16 24 14 26 12 29 8 27 5 24 4 29v47l-2 19-5 27-7 25-8 22-8 18-13 24-17 25-18 22-26 26-14 11-12 9-19 12-19 11-28 12-24 8-27 7-16 3-17 2-18 1h-15l-30-2-28-5v-1l23 1 17 1 7 1h36l27-2 7-2 1-1 11-1 1-3 9-3v-2l12-6 12-8 13-11 9-7 10-9 3-1v-2h2v-2h2v-2h2v-2h2v-2h2v-2h2l2-4 6-7 5-5 6-7 13-18 10-15 12-21 9-19 11-27 9-32 5-27 3-26 1-26v-14l-2-20-3-22-4-21-2-9-6-21-3-7-2-9-6-13-7-16-10-19-12-19-8-11v-2h-2l-4-6-11-13-7-9-6-5-6-7-7-6-5-5-10-8v-2l-4-2-13-10-15-10-2-1v-2l-4-1-9-5-9-3-2-1v-2z" fill="#317937"/>
<path transform="translate(206,785)" d="m0 0h373l1 1v66l-2 1h-372l-1-1v-66z" fill="#FDFDFC"/>
<path transform="translate(235,990)" d="m0 0h8l10 3 9 6 6 8 4 10 1 7v34h36l12 3 8 5 6 7 5 11 1 12-3 10-6 9-8 7-8 3-6 1-36 1-1 34-2 10-5 10-7 7-10 5-4 1h-11l-10-3-9-6-6-8-3-8-1-6-1-36-37-1-13-4-9-7-6-9-2-6v-15l4-10 9-10 8-5 10-2h36l1-37 3-12 6-8 8-7 7-3z" fill="#020101"/>
<path transform="translate(170,1331)" d="m0 0h136l12 2 10 5 7 8 5 11 1 12-2 8-6 10-9 8-7 3-6 1h-144l-9-2-10-6-7-8-4-10v-15l4-10 9-10 8-5z" fill="#020101"/>
<path transform="translate(482,1058)" d="m0 0h96l2 2v65l-1 1-28 1h-71l-2-1v-67z" fill="#BF2345"/>
<path transform="translate(498,1331)" d="m0 0h55l26 1 1 1v65l-1 1-23 1h-75l-3-1-1-64 1-3z" fill="#BF2345"/>
<path transform="translate(1685,1725)" d="m0 0h3l8 11 7 14 1 4v12l-4 11-4 6-4 5-10 6-10 3-8 1h-11l1-4 13-29 14-30z" fill="#4FA854"/>
<path transform="translate(1690,1546)" d="m0 0h2l-1 5-16 35-15 33-3 1-11-16-4-9-1-4v-12l4-11 7-10 9-6 11-4z" fill="#4FA854"/>
<path transform="translate(1570,290)" d="m0 0 7 6 68 68 5 3 70 70 2 1v2l3 1-1 3-13-1-4-2 1-7v-4h-2l-6-7-5-3-3-4v-2l-5-2-4-6-17-17v-2l-4-2v-2l-4-2v-2l-4-2v-2l-4-2v-2l-4-2v-2l-4-2v-2l-4-2v-2l-4-2v-2l-4-2v-2l-4-2-7-8-49-49z" fill="#FDB807"/>
<path transform="translate(1434,154)" d="m0 0 7 6 85 85h-3l-71-71-6-5-7-8-5-5z" fill="#FEC008"/>
<path transform="translate(1651,1365)" d="m0 0h40l26 3 10 2v1l-14-1h-6v-1l-7-1h-15l-11 1h-17l-15-2v-1z" fill="#317937"/>
<path transform="translate(282,1328)" d="m0 0 24 2v1h-134v-1l82-1h16z" fill="#273390"/>
<path transform="translate(409,1054)" d="m0 0h1l1 86h-1l-2-13-1-1v-18z" fill="#273390"/>
<path transform="translate(409,1327)" d="m0 0h1l1 85h-1l-2-12-1-4v-17l1-18z" fill="#273390"/>
<path transform="translate(1434,1865)" d="m0 0 8 6 8 11 7 6 6 7 8 7 4 2v2h2v2h2v2h3v2h2l1 3-4-2-11-9-12-11-14-14-9-11z" fill="#317937"/>
<path transform="translate(1643,1572)" d="m0 0 4 1v7l-1 2 2 1-2 5-1 6-3 1-1-4v-12z" fill="#317937"/>
<path transform="translate(1690,1546)" d="m0 0h2l-1 5-3 7-2-2-6 1h-2l-1-3 1-2 3-2 1-3z" fill="#449649"/>
<path transform="translate(1685,1725)" d="m0 0h3l6 8-1 2-3 2-4-1-2 2-4 1 2-6z" fill="#317937"/>
<path transform="translate(1400,120)" d="m0 0h4l7 8 4 4 1 4h-2v-2l-8-4-5 1z" fill="#FDB707"/>
<path transform="translate(204,1025)" d="m0 0h1v29l-1 4-4 1-32-1v-1l29-1h3l3 1z" fill="#273390"/>
<path transform="translate(1657,1787)" d="m0 0 1 3-1 2h2v2l4-1 1 3h8v1l-8 1h-11l1-4z" fill="#317937"/>
<path transform="translate(1575,1722)" d="m0 0 1 4 3 1-2 3 2 1v4h-2v5h-2l-1 2-1-5v-7z" fill="#337C38"/>
<path transform="translate(1682,1549)" d="m0 0 2 1-1 2h3v4l-6 1h-2l-1-3 1-2 3-2z" fill="#317A37"/>
<path transform="translate(1702,1750)" d="m0 0 2 4v12l-2 4-1-15z" fill="#317937"/>
<path transform="translate(1686,1726)" d="m0 0 4 2 1 4-4 3z" fill="#4BA250"/>
<path transform="translate(1752,1579)" d="m0 0 1 3 2 1-1 4-2 2-1-2-2 1z" fill="#347E3A"/>
</svg>
